# xmcd
#
# Track frame offsets:
#  150
#  12755
#  24722
#  36415
#  48552
#  56827
#  66975
#  80767
#  95012
#  105040
#  115052
#  128190
#  138995
#  150400
#  164482
#  177005
#  192215
#  205337
#
# Disc length: 2924 seconds
#
# Revision: 0
# Processed by: cddbd v1.5.2PL0 Copyright (c) Steve Scherf et al.
# Submitted via: AltoMP3_Maker 3.0
#
DISCID=f50b6a12
DTITLE=Various Artist - Blues Revival CD1
DYEAR=1900
DGENRE=
TTITLE0=Spoonful
TTITLE1=Walkin'  thru the park
TTITLE2=My Babe
TTITLE3=I wish you would
TTITLE4=I'm talking about you
TTITLE5=Dimples
TTITLE6=Smokestack Lightning
TTITLE7=You can't judge a book by the cover
TTITLE8=I ain't got you
TTITLE9=First Time I met the blues
TTITLE10=Too Much monkey business
TTITLE11=Baby what you want me to do
TTITLE12=Rollin' and tumblin' 
TTITLE13=Help me
TTITLE14=Pretty THing
TTITLE15=Goin'  down slow
TTITLE16=Standing at the crossroads
TTITLE17=I Can't quit you baby
EXTD=
EXTT0=
EXTT1=
EXTT2=
EXTT3=
EXTT4=
EXTT5=
EXTT6=
EXTT7=
EXTT8=
EXTT9=
EXTT10=
EXTT11=
EXTT12=
EXTT13=
EXTT14=
EXTT15=
EXTT16=
EXTT17=
PLAYORDER=
